<svg height="512" width="512" xmlns="http://www.w3.org/2000/svg"><path d="M349.9 268.9H324a7.5 7.5 0 000 15h25.8c10 0 18.3-8.2 18.3-18.3V227c0-10.1-8.2-18.3-18.3-18.3h-118c-10 0-18.2 8.2-18.2 18.3v38.6c0 10 8.2 18.3 18.3 18.3h55a7.5 7.5 0 000-15h-55a3.3 3.3 0 01-3.3-3.3V227c0-1.8 1.4-3.3 3.3-3.3h117.9c1.8 0 3.3 1.5 3.3 3.3v38.6c0 1.8-1.5 3.3-3.3 3.3zM393.7 445.6a7.5 7.5 0 00-7.5 7.5v40.6c0 1.8-1.5 3.3-3.3 3.3h-13v-96.3c0-10.1-8.1-18.3-18.2-18.3H230c-10 0-18.2 8.2-18.2 18.3V497h-13a3.3 3.3 0 01-3.2-3.3V304.5a7.5 7.5 0 00-15 0v189.2c0 10 8.2 18.3 18.3 18.3h183.9c10 0 18.3-8.2 18.3-18.3v-40.6c0-4.1-3.4-7.5-7.5-7.5zM226.9 497v-96.3c0-1.9 1.4-3.3 3.2-3.3h121.6c1.8 0 3.3 1.4 3.3 3.2V497z"/><path d="M401.2 286.6h10a21 21 0 0020.7 17.5h9.6a21 21 0 0021-21v-58.7a21 21 0 00-21-21h-9.6a21 21 0 00-20.7 17.4h-10V193c0-10.1-8.2-18.3-18.3-18.3h-1.4v-11.3c0-13-10.6-23.6-23.7-23.6h-35.2c-13 0-23.7 10.6-23.7 23.6v11.3h-23.7l-4.6-157C270.3 7.9 262.3 0 252.3 0H240c-10 0-18 7.8-18.3 17.8L217 174.7h-18c-10.1 0-18.3 8.2-18.3 18.3v74.5a7.5 7.5 0 0015 0V193c0-1.9 1.4-3.3 3.3-3.3h183.9c1.8 0 3.3 1.4 3.3 3.3v223a7.5 7.5 0 0015 0v-41.4h10a21 21 0 0020.7 17.4h9.6a21 21 0 0021-21v-37a21 21 0 00-21-21h-9.6a21 21 0 00-20.7 17.4h-10zm-87.3-123.2c0-4.7 4-8.6 8.7-8.6h35.2c4.8 0 8.7 3.9 8.7 8.6v11.3H314v-11.3zm-56.5-84.1h-22.6l.3-11h22zm-23 15h23.4l.9 28.3h-25.2zm5.5-79.3h12.4c1.8 0 3.3 1.4 3.3 3.2l1 35h-21l1-35c0-1.8 1.5-3.2 3.3-3.2zM233 137.6h26l1 37h-28zm192.8 86.8a6 6 0 016-6h9.6a6 6 0 016 6V283a6 6 0 01-6 6h-9.6a6 6 0 01-6-6zm-15 11.4v35.8h-9.7v-35.8zm15 98.2a6 6 0 016-6h9.6a6 6 0 016 6v37a6 6 0 01-6 6h-9.6a6 6 0 01-6-6zm-15 11.4v14.2h-9.7v-14.2z"/><path d="M221.2 310.8h139.5a7.5 7.5 0 000-15H221.2a7.5 7.5 0 000 15zM221.2 337.6h139.5a7.5 7.5 0 000-15H221.2a7.5 7.5 0 000 15zM221.2 364.5h139.5a7.5 7.5 0 000-15H221.2a7.5 7.5 0 000 15zM353 97.1l18-.8L352 115a7.5 7.5 0 1010.6 10.6L395.3 93a7.5 7.5 0 00-5.7-12.8l-18 1 18.9-18.9a7.5 7.5 0 10-10.6-10.6l-32.6 32.5a7.5 7.5 0 005.7 12.8zM389.3 124.8a7.5 7.5 0 007.2 4.5l13-.6L395 143a7.5 7.5 0 1010.6 10.6l28.2-28.2a7.5 7.5 0 00-5.7-12.8l-12.9.7 14.5-14.5A7.5 7.5 0 10419 88.3l-28.2 28.2a7.5 7.5 0 00-1.6 8.3zM179.6 61a75.9 75.9 0 00-107.4.2 76 76 0 00-22.7 52.5 76.6 76.6 0 0071.4 78l13.5 13.5a17.4 17.4 0 0030-12.4v-11.3a76 76 0 0038-66.1c0-20.6-8.1-40-22.8-54.5zm-26.1 109.3a7.5 7.5 0 00-4.2 6.7v15.8c0 1.5-1 2-1.5 2.3-.6.2-1.7.5-2.8-.5L129.5 179a7.5 7.5 0 00-5.2-2.2A61.6 61.6 0 0164.5 114 62 62 0 01126 54a61 61 0 0143.2 17.6 61.2 61.2 0 01-15.6 98.7z"/><path d="M127.6 87.8a7.5 7.5 0 00-7.5 7.5v13h-12.8v-13a7.5 7.5 0 00-15 0V139a7.5 7.5 0 0015 0v-15.7H120V139a7.5 7.5 0 0015 0V95.3c0-4.1-3.4-7.5-7.5-7.5zM150.3 109.6a7.5 7.5 0 00-7.5 7.5V139a7.5 7.5 0 0015 0V117c0-4.1-3.3-7.5-7.5-7.5zM150.3 87.8a7.5 7.5 0 00-7.5 7.5v.1a7.5 7.5 0 0015 0c0-4.2-3.3-7.6-7.5-7.6z"/></svg>